<svg width="128" height="50" viewBox="0 0 128 50" fill="none" xmlns="http://www.w3.org/2000/svg">
<path d="M26.4196 5.51745C30.1196 4.51745 33.8896 5.83745 36.2096 8.56745L35.5596 10.9374H35.3196C33.6496 7.58745 30.3796 4.70745 26.4696 5.72745C22.9896 6.66745 21.3196 10.0674 21.2096 13.4674H21.7496C26.0696 13.4674 30.7896 12.4474 30.7896 12.4474H31.0296V14.7374H30.7896C30.7896 14.7374 26.0696 13.7174 21.7496 13.7174H21.1796C21.1796 14.7374 21.2896 15.7674 21.5596 16.7374C23.9896 25.7774 35.6196 25.8074 37.2096 17.7574L37.4496 17.8074C35.6996 26.5774 22.1496 26.6274 19.6396 17.2374C18.2596 12.1074 21.3096 6.87745 26.4096 5.49745L26.4196 5.51745ZM30.9296 0.28745C31.2496 0.66745 31.1196 1.17745 30.2596 1.71745C29.3996 2.25745 25.6196 4.44745 25.6196 4.44745L25.5096 4.28745C25.5096 4.28745 28.6396 1.20745 29.3996 0.53745C30.1596 -0.13255 30.6096 -0.132552 30.9396 0.297448L30.9296 0.28745Z" fill="white"/>
<path d="M46.2101 5.48756C49.9101 4.48756 53.6601 5.80756 55.9801 8.53756L55.3601 10.9076H55.1201C53.4501 7.55756 50.1501 4.67756 46.2701 5.69756C41.6301 6.93756 40.2301 12.4976 41.3601 16.7076C43.7901 25.7476 55.4201 25.7676 57.0101 17.7276L57.2301 17.7776C55.5001 26.5476 41.9601 26.5976 39.4501 17.2076C38.0701 12.0776 41.1001 6.84756 46.2201 5.46756L46.2101 5.48756Z" fill="white"/>
<path d="M59.0599 7.64739C59.0599 5.86739 58.5999 5.56739 58.4399 5.56739V5.32739H61.5999V5.56739C61.4399 5.56739 60.9799 5.86739 60.9799 7.64739V17.1474C60.9799 17.1474 60.5999 24.1074 66.0799 24.1074C68.7499 24.1074 72.5599 22.9774 72.5599 17.1474V9.72739C72.5599 7.21739 71.9399 5.56739 71.5299 5.56739V5.32739H73.8199V5.56739C73.4199 5.56739 72.7899 7.21739 72.7899 9.72739V17.1474C72.7899 23.9174 67.7999 24.4274 66.2599 24.4274C64.7199 24.4274 59.0599 23.6774 59.0599 17.1474V7.64739Z" fill="white"/>
<path d="M86.9997 20.4676C88.1897 22.4876 89.0797 24.0276 89.4797 24.0276V24.2676H86.3297V24.0276C86.5497 24.0276 86.1397 22.7876 85.1397 21.0576L81.0397 13.9576H77.9897V21.9476C77.9897 23.6976 78.4497 24.0276 78.6097 24.0276V24.2676H75.4497V24.0276C75.6097 24.0276 76.0697 23.7076 76.0697 21.9476V7.64759C76.0697 5.86759 75.6097 5.56759 75.4497 5.56759V5.32759H75.6897C77.2797 5.29759 79.1097 5.02759 80.6797 5.02759C86.1597 5.02759 88.0197 6.88759 88.0197 9.50759C88.0197 11.6676 86.7297 13.3176 83.1597 13.8276L86.9897 20.4676H86.9997ZM77.9797 13.7476H80.6797C83.0297 13.7476 86.1297 12.8276 86.1297 9.50759C86.1297 6.18759 83.0297 5.24759 80.6797 5.24759C79.8397 5.24759 78.9197 5.32759 77.9797 5.40759V13.7476Z" fill="white"/>
<path d="M94.2899 5.56739C94.0999 5.56739 93.6399 5.86739 93.6399 7.64739V21.9474C93.6399 23.6974 94.0999 24.0274 94.2899 24.0274V24.2674H91.1099V24.0274C91.2699 24.0274 91.7299 23.7074 91.7299 21.9474V7.64739C91.7299 5.86739 91.2699 5.56739 91.1099 5.56739V5.32739H94.2899V5.56739Z" fill="white"/>
<path d="M102.63 5.51759C106.33 4.51759 110.1 5.83759 112.43 8.56759L111.78 10.9376H111.54C109.87 7.58759 106.6 4.70759 102.69 5.72759C99.2099 6.66759 97.5399 10.0676 97.4299 13.4676H97.9699C102.29 13.4676 107.01 12.4476 107.01 12.4476H107.25V14.7376H107.01C107.01 14.7376 102.29 13.7176 97.9699 13.7176H97.3999C97.3999 14.7376 97.5099 15.7676 97.7799 16.7376C100.21 25.7776 111.84 25.8076 113.43 17.7576L113.67 17.8076C111.92 26.5776 98.3699 26.6276 95.8599 17.2376C94.4799 12.1076 97.5299 6.87759 102.63 5.49759V5.51759Z" fill="white"/>
<path d="M114.51 20.1974L115.16 17.7974H115.38C115.38 17.7974 118.19 24.2774 122.29 24.2774C123.48 24.2774 126.58 23.4974 126.58 20.8774C126.58 18.2574 123.83 16.5574 121.34 15.6674C118.53 14.6674 115.94 13.0174 115.94 9.97741C115.94 6.93741 118.42 5.09741 121.36 5.09741C125.03 5.09741 126.62 6.74741 127.67 8.60741L127.02 10.9774H126.78C126.78 10.9774 125.46 5.33741 121.36 5.33741C120.17 5.33741 117.04 6.11741 117.04 8.73741C117.04 11.3574 119.79 13.0274 122.3 13.9174C125.11 14.9174 127.7 16.5574 127.7 19.6074C127.7 22.6574 125.19 24.4874 122.28 24.4874C118.61 24.4874 115.56 22.0574 114.51 20.1974Z" fill="white"/>
<path d="M1.12988 30.7574H3.66988V33.6174C5.49988 28.1674 17.4799 29.5474 17.4799 40.2274C17.4799 47.2174 12.6499 49.9974 6.25988 49.9974C4.69988 49.9974 2.96988 49.7274 1.37988 49.6974H1.13988V49.4574C1.29988 49.4574 1.75988 49.1274 1.75988 47.3774V33.0774C1.75988 31.2974 1.29988 30.9974 1.13988 30.9974V30.7574H1.12988ZM3.65988 35.1274V49.5874C4.54988 49.6674 5.40988 49.7474 6.24988 49.7474C12.1299 49.7474 15.5799 46.1274 15.5799 40.2274C15.5799 29.0574 3.65988 28.7574 3.65988 35.1274Z" fill="white"/>
<path d="M19.7299 33.0776C19.7299 31.2976 19.2699 30.9976 19.1099 30.9976V30.7576H22.2699V30.9976C22.1099 30.9976 21.6499 31.2976 21.6499 33.0776V42.5776C21.6499 42.5776 21.2699 49.5376 26.7499 49.5376C29.4199 49.5376 33.2199 48.4076 33.2199 42.5776V35.1576C33.2199 32.6476 32.5999 30.9976 32.1999 30.9976V30.7576H34.4899V30.9976C34.0799 30.9976 33.4599 32.6476 33.4599 35.1576V42.5776C33.4599 49.3476 28.4699 49.8576 26.9299 49.8576C25.3899 49.8576 19.7299 49.0976 19.7299 42.5776V33.0776Z" fill="white"/>
<path d="M45.3196 49.6975H42.1396V49.4575C42.2996 49.4575 42.7597 49.1275 42.7597 47.3775V33.0775C42.7597 31.2975 42.2996 30.9975 42.1396 30.9975V30.7575H42.3797C43.9697 30.7275 45.8296 30.4575 47.3996 30.4575C52.8496 30.4575 54.7397 32.3175 54.7397 34.9375C54.7397 37.5575 52.8496 39.3875 47.3996 39.3875H44.6697V47.3775C44.6697 49.1275 45.1296 49.4575 45.3196 49.4575V49.6975ZM47.3996 39.1475V39.1775C49.7196 39.1775 52.8497 38.2575 52.8497 34.9375C52.8497 31.6175 49.7196 30.6775 47.3996 30.6775C46.5396 30.6775 45.6197 30.7575 44.6697 30.8375V39.1475H47.3996Z" fill="white"/>
<path d="M62.7798 30.9474C67.9098 29.5674 73.1698 32.5974 74.5198 37.7174C75.8998 42.8174 72.8698 48.0774 67.7498 49.4574C62.6498 50.8374 57.3898 47.7874 56.0098 42.6874C54.6598 37.5574 57.6798 32.2974 62.7798 30.9474ZM62.8598 31.1574C58.1898 32.3974 56.8198 37.9574 57.9198 42.1674C59.0498 46.3474 63.0498 50.4774 67.6898 49.2074C72.3298 47.9674 73.7298 42.4074 72.5998 38.2274C71.4898 34.0174 67.4998 29.9174 62.8598 31.1574Z" fill="white"/>
<path d="M77.12 33.0776C77.12 31.2976 76.66 30.9976 76.5 30.9976V30.7576H79.66V30.9976C79.5 30.9976 79.04 31.2976 79.04 33.0776V42.5776C79.04 42.5776 78.66 49.5376 84.14 49.5376C86.81 49.5376 90.61 48.4076 90.61 42.5776V35.1576C90.61 32.6476 89.99 30.9976 89.59 30.9976V30.7576H91.88V30.9976C91.47 30.9976 90.85 32.6476 90.85 35.1576V42.5776C90.85 49.3476 85.86 49.8576 84.32 49.8576C82.78 49.8576 77.12 49.0976 77.12 42.5776V33.0776Z" fill="white"/>
<path d="M100.63 30.9475C104.33 29.9475 108.1 31.2675 110.42 33.9975L109.77 36.3675H109.53C107.86 33.0175 104.59 30.1375 100.68 31.1575C97.2001 32.0975 95.5301 35.4975 95.4201 38.8975H95.9601C100.28 38.8975 105 37.8775 105 37.8775H105.24V40.1675H105C105 40.1675 100.28 39.1475 95.9601 39.1475H95.3901C95.3901 40.1675 95.5001 41.1975 95.7701 42.1675C98.2001 51.2075 109.83 51.2275 111.42 43.1875L111.66 43.2375C109.91 52.0075 96.3601 52.0575 93.8501 42.6675C92.4701 37.5375 95.5201 32.3075 100.62 30.9275L100.63 30.9475Z" fill="white"/>
<path d="M121.09 42.9475V47.3775C121.09 49.1575 121.55 49.4575 121.71 49.4575V49.6975H118.55V49.4575C118.71 49.4575 119.17 49.1575 119.17 47.3775V43.4375L114.31 34.4475C113.07 32.6675 112.04 30.9675 111.37 30.9675V30.7275H115.39V30.9675C115.17 30.9675 115.2 31.9075 115.93 33.3675L120.95 42.6775L125.4 33.5875C125.62 33.0975 126.61 30.9675 125.37 30.9675V30.7275H127.69V30.9675C127.28 30.9675 126.58 31.6975 125.4 34.1275L121.08 42.9475H121.09Z" fill="white"/>
<mask id="mask0_25_283" style="mask-type:luminance" maskUnits="userSpaceOnUse" x="0" y="10" width="17" height="8">
<path d="M1.90735e-06 17.1575L16.75 17.1575V10.0975L1.90735e-06 10.0975V17.1575Z" fill="white"/>
</mask>
<g mask="url(#mask0_25_283)">
<path d="M8.69004 37.7074C2.61004 40.6874 -3.59996 36.7374 -7.40996 28.6074L-6.33996 21.5174H-5.93996C-3.18996 31.5074 2.18004 40.1174 8.61004 37.0574C14.34 34.2374 17.09 24.0874 17.26 13.9474H16.37C9.27004 13.9474 1.50004 17.0074 1.50004 17.0074H1.10004V10.1674H1.50004C1.50004 10.1674 9.27004 13.2274 16.37 13.2274H17.3C17.3 10.1674 17.12 7.10738 16.68 4.20738C12.68 -22.7726 -6.43996 -22.8526 -9.05996 1.14738L-9.45996 0.987381C-6.57996 -25.1826 15.69 -25.3426 19.82 2.67738C22.08 17.9774 17.07 33.6074 8.68004 37.7174L8.69004 37.7074Z" fill="white"/>
</g>
<path d="M14.48 13.2275V13.9475H25.9V13.2275H14.48Z" fill="white"/>
</svg>
