<svg width="16" height="14" viewBox="0 0 16 14" fill="none" xmlns="http://www.w3.org/2000/svg">
<path d="M15.608 0.129551L15.224 2.86555C14.456 2.80155 13.832 2.92955 13.352 3.24955C12.872 3.55355 12.536 4.00155 12.344 4.59355C12.168 5.16955 12.136 5.84155 12.248 6.60955H15.608V13.1376H9.07997V6.60955C9.07997 4.30555 9.61597 2.56155 10.688 1.37755C11.76 0.177551 13.4 -0.238449 15.608 0.129551ZM6.91997 0.129551L6.53597 2.86555C5.76797 2.80155 5.14397 2.92955 4.66397 3.24955C4.18397 3.55355 3.84797 4.00155 3.65597 4.59355C3.47997 5.16955 3.44797 5.84155 3.55997 6.60955H6.91997V13.1376H0.391968V6.60955C0.391968 4.30555 0.927968 2.56155 1.99997 1.37755C3.07197 0.177551 4.71197 -0.238449 6.91997 0.129551Z" fill="#C07239"/>
</svg>
